<?xml version="1.0" standalone="no"?>
<!DOCTYPE svg PUBLIC "-//W3C//DTD SVG 20010904//EN"
 "http://www.w3.org/TR/2001/REC-SVG-20010904/DTD/svg10.dtd">
<svg version="1.0" xmlns="http://www.w3.org/2000/svg"
 width="512.000000pt" height="512.000000pt" viewBox="0 0 512.000000 512.000000"
 preserveAspectRatio="xMidYMid meet">
<metadata>
Created by potrace 1.11, written by Peter Selinger 2001-2013
</metadata>
<g transform="translate(0.000000,512.000000) scale(0.100000,-0.100000)"
fill="#000000" stroke="none">
<path d="M2240 5105 c-389 -48 -766 -188 -1091 -404 -504 -335 -871 -825
-1043 -1395 -74 -243 -106 -468 -106 -746 0 -209 10 -324 46 -505 64 -325 190
-631 373 -906 110 -166 215 -292 362 -434 146 -141 253 -224 418 -325 114 -70
347 -190 366 -190 4 0 21 -7 38 -15 119 -55 395 -131 592 -161 154 -23 505
-28 654 -9 404 52 711 158 1055 364 170 103 291 196 435 335 323 315 549 682
675 1100 74 243 106 468 106 746 0 209 -10 324 -46 505 -181 920 -867 1676
-1768 1949 -132 41 -333 81 -468 96 -131 14 -469 11 -598 -5z"/>
</g>
</svg>
